Simulation
nRows=44
nColumns=15
endheader
time  TH_x TH_y TH_z SC_y  SC_z  SC_x  AC_y  AC_z  AC_x  GH_y  GH_z  GH_yy  EL_x  PS_y
0.0  0.000000  0.000000  0.000000  -30.476102359316787  -1.5297532176200765  11.565966667917884  56.94321291131656  -6.62744325683627  -12.688759358639075  18.002035546081334  12.096347586763514  6.153007915937891  25.57213393554029  0.000000
0.015  0.000000  0.000000  0.000000  -30.578891989708342  -1.5394797557271744  11.688828395766858  56.96442394249899  -6.576729233579322  -12.726911486344044  17.923350114769136  12.38007556012346  6.024535571094319  25.578036157374346  0.000000
0.03  0.000000  0.000000  0.000000  -30.533380444223237  -1.4782782300008757  11.800131696024588  56.97958726372911  -6.562219748681643  -12.775204682227915  17.92757387599867  12.689997116268398  5.92483944927573  25.56138015936477  0.000000
0.045  0.000000  0.000000  0.000000  -30.546654113575553  -1.4288864897837772  11.911863909540727  56.98253867836974  -6.562137498197491  -12.816082308132112  17.97836428964065  13.058234456806469  5.794172075358077  25.527804434193484  0.000000
0.06  0.000000  0.000000  0.000000  -30.5784147298085  -1.3946742187807348  12.021272217102803  56.99115688587049  -6.58523131236279  -12.854278074634317  18.03188998645179  13.47502055900835  5.565786983513221  25.48869071750511  0.000000
0.075  0.000000  0.000000  0.000000  -30.63435333478143  -1.3696446765276045  12.134515661293236  57.01252579346277  -6.6229353153279735  -12.889362584922821  18.11240160353172  13.936122301180234  5.269220212345349  25.438027733185706  0.000000
0.09  0.000000  0.000000  0.000000  -30.69389223400892  -1.3450117091664933  12.256324508094433  57.03281346616503  -6.67478296693997  -12.920968262063614  18.208934582914917  14.427506465370781  4.899039149107151  25.38461673207512  0.000000
0.105  0.000000  0.000000  0.000000  -30.756738970601845  -1.318380125214299  12.385082217324463  57.06105930913881  -6.7375486483162375  -12.950091220724527  18.323931238798256  14.952339196192156  4.46645009332652  25.32544473493441  0.000000
0.12  0.000000  0.000000  0.000000  -30.81989693701639  -1.287592831393435  12.523526614947697  57.08909903164859  -6.806090117665223  -12.978228757276522  18.453912440487688  15.504880156647125  3.9804104089230963  25.265110306715158  0.000000
0.135  0.000000  0.000000  0.000000  -30.881032452262634  -1.2514917160402084  12.669845957869576  57.11966296022061  -6.878589319704256  -13.0057833614532  18.594337296679782  16.086521570199128  3.4464543123567157  25.20120303320891  0.000000
0.15  0.000000  0.000000  0.000000  -30.94100275264565  -1.2102304485647033  12.824030591447716  57.15135444242852  -6.9501109431243755  -13.033871529818681  18.74177125649901  16.695267314383347  2.8729230008907582  25.13559044519589  0.000000
0.16499999999999998  0.000000  0.000000  0.000000  -30.99888905778585  -1.1634002828193353  12.984589968043066  57.18357342379961  -7.01770974182682  -13.062560804547083  18.89235722706375  17.330673839265632  2.266217702970182  25.067145313980042  0.000000
0.18  0.000000  0.000000  0.000000  -31.055231737193054  -1.1114480011684376  13.150272660722496  57.21718727694647  -7.077551226990965  -13.092431755348178  19.042821809784083  17.991619691588152  1.6327603677950289  24.99616398140444  0.000000
0.195  0.000000  0.000000  0.000000  -31.11004743042865  -1.0543973595736806  13.319792222380684  57.2510111459486  -7.126512088641471  -13.123371702315884  19.19058950815798  18.676944016978283  0.9790592813507616  24.92238368534562  0.000000
0.21  0.000000  0.000000  0.000000  -31.163551754428692  -0.9927258836321471  13.491674174039185  57.28635740752477  -7.161704204997797  -13.15542115778156  19.332953488732045  19.38555622069338  0.31008479670437905  24.845716829440732  0.000000
0.22499999999999998  0.000000  0.000000  0.000000  -31.216058989987975  -0.9267286175804109  13.664281456317179  57.32243945935259  -7.179863071160972  -13.18802288304047  19.468475089825045  20.115993259671754  -0.3681326911396165  24.76655895649917  0.000000
0.24  0.000000  0.000000  0.000000  -31.26752141177449  -0.8559868272135864  13.836132049000103  57.36050958989881  -7.17914153021525  -13.22021981990074  19.59532006950194  20.866781499413207  -1.0517264533515933  24.685460242721362  0.000000
0.255  0.000000  0.000000  0.000000  -31.318055853288275  -0.7806035710737229  14.006910180047864  57.400536215204134  -7.15875264123954  -13.251693429952814  19.712303079926194  21.63610149258568  -1.7364328399650972  24.60248671836298  0.000000
0.27  0.000000  0.000000  0.000000  -31.367914275709406  -0.7019398567373648  14.177294633660992  57.44390312763209  -7.119089990546941  -13.283123998198821  19.81807571920383  22.42166264351365  -2.4190494874301627  24.5172624654842  0.000000
0.285  0.000000  0.000000  0.000000  -31.417603829799827  -0.6207727575692575  14.347446599060143  57.49126913283367  -7.0610183297137565  -13.313486576892565  19.912320528453012  23.220499158268098  -3.095868132396566  24.429253958433772  0.000000
0.3  0.000000  0.000000  0.000000  -31.46758354255453  -0.5372146654799492  14.515874484643046  57.544208800865  -6.985076328985707  -13.339967559800055  19.99488956544149  24.029226853813295  -3.76455961915978  24.338152943372176  0.000000
0.315  0.000000  0.000000  0.000000  -31.517977536927337  -0.4515967035078755  14.679620900069548  57.603452190721306  -6.89064267219533  -13.359486945345292  20.066141456289344  24.844692872795772  -4.42274943556959  24.243835677501682  0.000000
0.32999999999999996  0.000000  0.000000  0.000000  -31.56881953552509  -0.3643665083342679  14.836661349095369  57.669216675941  -6.7771618566024765  -13.369759274386164  20.12662113830126  25.663557146539837  -5.068421558128467  24.14647528279725  0.000000
0.345  0.000000  0.000000  0.000000  -31.62041933903948  -0.2755887980812287  14.987484979863774  57.74141845137708  -6.645373666919787  -13.369962303121813  20.177531218900736  26.482864944125193  -5.6989782705541145  24.046202873170515  0.000000
0.36  0.000000  0.000000  0.000000  -31.672352430741267  -0.1847771385652209  15.133252254422576  57.821577140475526  -6.496731443851093  -13.360517451092344  20.21962841785326  27.30063645330731  -6.3135507677445135  23.943053686068918  0.000000
0.375  0.000000  0.000000  0.000000  -31.72524698802313  -0.0922449533901334  15.275522169158931  57.910054218574494  -6.332250221845929  -13.342295705254317  20.2540854074838  28.11562942145589  -6.910766300898647  23.8371455789988  0.000000
0.39  0.000000  0.000000  0.000000  -31.779856248852997  0.0011296850918794928  15.416260678150039  58.00694323590998  -6.1529804501388625  -13.316612092026114  20.281576653370813  28.926701118508767  -7.490252860199728  23.728620203252923  0.000000
0.40499999999999997  0.000000  0.000000  0.000000  -31.836560135087414  0.09459485397273672  15.557427751933233  58.112166019015945  -5.96006589640638  -13.285238494132336  20.302808852749457  29.733090339539217  -8.051877505093065  23.617348676215734  0.000000
0.42  0.000000  0.000000  0.000000  -31.895372931963614  0.18757141382770362  15.70079926793631  58.225315256637465  -5.754309531499768  -13.25008478189493  20.318486695092993  30.533988731311958  -8.595773736407658  23.503207819476863  0.000000
0.435  0.000000  0.000000  0.000000  -31.955807489903158  0.27970065922459464  15.847843741495836  58.34533801355686  -5.536162793215459  -13.213140895089833  20.32941158514582  31.32857795044378  -9.121818699029573  23.38592705240888  0.000000
0.44999999999999996  0.000000  0.000000  0.000000  -32.01749470282299  0.3709945192862732  15.999761193617198  58.47112993339773  -5.305976505973354  -13.176120701881262  20.33628042056623  32.115863171505694  -9.63021460869436  23.265352949008633  0.000000
0.46499999999999997  0.000000  0.000000  0.000000  -32.080652029939685  0.461709986403664  16.15715334521704  58.601405608127635  -5.064121827661842  -13.140103208420571  20.33977775126404  32.895092282323674  -10.12152396944025  23.14143431051283  0.000000
0.48  0.000000  0.000000  0.000000  -32.14564373516316  0.5521639831659101  16.320224796083814  58.73493588604903  -4.810866961308683  -13.105765814328917  20.340590058093916  33.665559866681555  -10.596641437114284  23.01393803746507  0.000000
0.495  0.000000  0.000000  0.000000  -32.21275800014849  0.6428308813713378  16.489071015881578  58.870418009077625  -4.546555593954715  -13.073441903000358  20.339426337626442  34.426534005889785  -11.056333139613766  22.882479072532533  0.000000
0.51  0.000000  0.000000  0.000000  -32.28238208358358  0.734348085057168  16.663652784911672  59.0068071951582  -4.271476304677723  -13.04318684192246  20.33712684222617  35.17720169237301  -11.501286640508901  22.746717743019797  0.000000
0.525  0.000000  0.000000  0.000000  -32.355078394808444  0.8273657808823783  16.843835875502467  59.143085584194765  -3.9859456812001026  -13.014704613606483  20.33456940695684  35.91675361308942  -11.932184461915883  22.606529009180722  0.000000
0.54  0.000000  0.000000  0.000000  -32.43141948739301  0.9224136172496851  17.029340426666426  59.27861329010829  -3.6903342245457367  -12.987496481912732  20.332506381525672  36.644522669841486  -12.35013435313012  22.46176947787257  0.000000
0.5549999999999999  0.000000  0.000000  0.000000  -32.51175626778191  1.0198723819370978  17.219888147511163  59.41280590239721  -3.385031559653078  -12.96091682633026  20.331582299516718  37.35988985855212  -12.756282926848607  22.31223705848324  0.000000
0.57  0.000000  0.000000  0.000000  -32.5964165145677  1.1201095304496398  17.415293928998018  59.545331533562496  -3.0705383810263873  -12.934287346054983  20.332418030930125  38.06227618617655  -13.151767510628432  22.15779336816602  0.000000
0.585  0.000000  0.000000  0.000000  -32.68581325826663  1.2236004091077592  17.61539858428702  59.67587134221435  -2.7474985258424116  -12.906763893650247  20.33573879251912  38.75116354245941  -13.537597564908744  21.998434390265555  0.000000
0.6  0.000000  0.000000  0.000000  -32.78033608870886  1.3307928174940533  17.819878330775076  59.80411787060478  -2.416483545403126  -12.87739438595872  20.342277792946945  39.42612093696742  -13.914804678752862  21.834266884403444  0.000000
0.615  0.000000  0.000000  0.000000  -32.8803175306034  1.442005639923377  18.02868647268856  59.92984106962234  -2.078345734058017  -12.845382109012993  20.352709798994912  40.08685342554739  -14.284445792828597  21.66535671045661  0.000000
0.63  0.000000  0.000000  0.000000  -32.986037051921684  1.557348496844763  18.2420874276467  60.052740293287236  -1.7340810673253164  -12.810137443520704  20.367727208125352  40.73314446987447  -14.647493689553242  21.491723865367696  0.000000
0.645  0.000000  0.000000  0.000000  -33.09779571027633  1.677000451664367  18.46026497347975  60.17244885731865  -1.3845926223029854  -12.771166410233429  20.388036176501014  41.36478634449351  -15.004756403339078  21.313589731573202  0.000000
